<svg xmlns="http://www.w3.org/2000/svg" xmlns:xlink="http://www.w3.org/1999/xlink" width="128" height="102" viewBox="0 0 128 102">
  <defs>
    <path id="a" d="M.888 3.179c-.44.202-.732.652-.732 1.228v8.12c0 .908.708 1.768 1.572 1.91l12.389 2.03c.839.137 1.505-.486 1.48-1.382l-.225-8.02a1.992 1.992 0 0 0-.74-1.466L7.757.234.888 3.179zM1.5 4.513l6.278-2.715 6.294 4.913-6.185 3.042L1.5 4.513z"/>
    <path id="c" d="M.888 3.179c-.44.202-.732.652-.732 1.228v8.12c0 .908.708 1.768 1.572 1.91l12.389 2.03c.839.137 1.505-.486 1.48-1.382l-.225-8.02a1.992 1.992 0 0 0-.74-1.466L7.757.234.888 3.179zM1.5 4.513l6.278-2.715 6.294 4.913-6.185 3.042L1.5 4.513z"/>
  </defs>
  <g fill="none" fill-rule="evenodd">
    <path fill="#D8D8D8" d="M20.208 76.809L8.972 84.874c-.85.61-.584 1.949.436 2.178 13.08 2.938 67.446 15.224 67.676 14.531.225-.684 40.878-36.164 50.347-45.175.914-.869.502-2.413-.72-2.703L82.253 43.167 20.208 76.809z"/>
    <path fill="#E9EAED" d="M58.101 31.58l44.618 7.072-32.507 9.216-23.371-7.287z"/>
    <path fill="#CDCED6" d="M58.101.073l66.29 8.573-.184 31.007c-.015 2.488-2.266 4.35-4.687 3.88L58.101 31.58V.073z"/>
    <path fill="#AEAFBC" d="M.85 27.888L58.1.073V31.58L4.977 73.67c-.977.776-2.415.115-2.477-1.138L.34 28.753a.91.91 0 0 1 .51-.865"/>
    <path fill="#CDCED6" d="M1.406 28.324l73.055 11.614.85 50.367-71.495-14.55a1.542 1.542 0 0 1-1.228-1.439L.365 29.268a.905.905 0 0 1 1.041-.944"/>
    <path fill="#A9B2BD" d="M74.461 39.938l49.93-31.292-.203 34.076a3.99 3.99 0 0 1-1.256 2.887L75.311 90.305l-.85-50.367z"/>
    <path fill="#FFF" d="M42.363 57.565c-.016-.552-.307-1.081-.744-1.422l-6.924-5.21-6.915 2.86c-.442.195-.738.633-.738 1.192v7.885c0 .882.714 1.717 1.584 1.855L41.1 66.696c.845.134 1.516-.471 1.491-1.341l-.227-7.79zm-7.537 2.612l-6.43-5.088 6.32-2.638 6.338 4.771-6.228 2.955z"/>
    <g>
      <g transform="translate(27.429 51)">
        <mask id="b" fill="#fff">
          <use xlink:href="#a"/>
        </mask>
        <path fill="#FFF" d="M-45.86 470.536l506.56-163.36L305.27 17.022-21.9-62.19z" mask="url(#b)"/>
      </g>
      <g transform="translate(27.429 51)">
        <mask id="d" fill="#fff">
          <use xlink:href="#c"/>
        </mask>
        <path fill="#FFF" d="M-2.825 16.826l21.41 3.434L17.909-.8l-20.62-3.793z" mask="url(#d)"/>
      </g>
    </g>
  </g>
</svg>
