<!--
  ~ Copyright (C) 2019 Inera AB (http://www.inera.se)
  ~
  ~ This file is part of sklintyg (https://github.com/sklintyg).
  ~
  ~ sklintyg is free software: you can redistribute it and/or modify
  ~ it under the terms of the GNU General Public License as published by
  ~ the Free Software Foundation, either version 3 of the License, or
  ~ (at your option) any later version.
  ~
  ~ sklintyg is distributed in the hope that it will be useful,
  ~ but WITHOUT ANY WARRANTY; without even the implied warranty of
  ~ MERCHANTABILITY or FITNESS FOR A PARTICULAR PURPOSE. See the
  ~ GNU General Public License for more details.
  ~
  ~ You should have received a copy of the GNU General Public License
  ~ along with this program.  If not, see <http://www.gnu.org/licenses/>.
  -->

<svg xmlns="http://www.w3.org/2000/svg" xmlns:xlink="http://www.w3.org/1999/xlink" width="128" height="101" viewBox="0 0 128 101">
    <defs>
        <path id="a" d="M.258 1.322v12.645l3.552-3.04 8.683 1.322c.47.071.858-.265.864-.747l.1-7.955c.007-.49-.374-.957-.849-1.037L1.16.561A.909.909 0 0 0 1.01.548c-.425 0-.752.323-.752.774zM15.02 14.38L3.804 12.708l-.007 1.775c0 .488.392.943.874 1.013l9.467 1.365 3.305 3.917.217-12.992c.009-.482-.365-.94-.83-1.016l-1.698-.277-.112 7.887z"/>
        <path id="c" d="M.258 1.322v12.645l3.552-3.04 8.683 1.322c.47.071.858-.265.864-.747l.1-7.955c.007-.49-.374-.957-.849-1.037L1.16.561A.909.909 0 0 0 1.01.548c-.425 0-.752.323-.752.774zM15.02 14.38L3.804 12.708l-.007 1.775c0 .488.392.943.874 1.013l9.467 1.365 3.305 3.917.217-12.992c.009-.482-.365-.94-.83-1.016l-1.698-.277-.112 7.887z"/>
    </defs>
    <g fill="none" fill-rule="evenodd">
        <path fill="#D8D8D8" d="M19.87 76.364L8.632 84.35c-.85.605-.584 1.93.436 2.156 13.08 2.91 67.446 15.076 67.676 14.39.225-.678 40.878-35.81 50.347-44.733.914-.86.502-2.39-.72-2.677L81.915 43.052 19.869 76.364z"/>
        <path fill="#E9EAED" d="M57.763 31.578l44.617 7.004-32.507 9.125L46.5 40.492z"/>
        <path fill="#CDCED6" d="M57.763.38l66.289 8.49-.184 30.703c-.015 2.463-2.266 4.308-4.687 3.841L57.763 31.578V.381z"/>
        <path fill="#AEAFBC" d="M.51 27.923L57.762.38v31.198L4.638 73.256c-.977.768-2.415.114-2.477-1.127L0 28.779a.9.9 0 0 1 .51-.856"/>
        <path fill="#CDCED6" d="M1.067 28.355l73.055 11.5.85 49.873L3.477 75.32a1.531 1.531 0 0 1-1.228-1.424L.026 29.289a.902.902 0 0 1 1.041-.934"/>
        <path fill="#A9B2BD" d="M74.122 39.855l49.93-30.985-.202 33.742a3.938 3.938 0 0 1-1.256 2.858L74.972 89.728l-.85-49.873z"/>
        <path fill="#FFF" d="M49.087 56.796l-1.709-.27-.113 7.674-11.29-1.627-.006 1.728c-.002.474.394.917.88.985l9.528 1.328 3.328 3.812.218-12.642c.008-.47-.367-.914-.836-.988M45.592 61.4l.1-7.74c.007-.476-.377-.932-.854-1.01l-11.525-1.896c-.499-.082-.907.252-.907.741V63.8l3.575-2.959 8.74 1.287c.473.069.864-.258.87-.727"/>
        <g transform="translate(32 51)">
            <mask id="b" fill="#fff">
                <use xlink:href="#a"/>
            </mask>
            <path fill="#FFF" d="M-19.71 212.4l262.31-53.397L282 14.653-26.607-75.753z" mask="url(#b)"/>
        </g>
        <g transform="translate(32 51)">
            <mask id="d" fill="#fff">
                <use xlink:href="#c"/>
            </mask>
            <path fill="#FFF" d="M-2.704 20.957l22.853 3.03L20.6.918-2.775-3.186z" mask="url(#d)"/>
        </g>
    </g>
</svg>
